HIERARCHY
ROOT Hips
{
	OFFSET 0.00000 0.00000 0.00000
	CHANNELS 6 Xposition Yposition Zposition Zrotation Yrotation Xrotation 
	JOINT LHipJoint
	{
		OFFSET 0 0 0
		CHANNELS 3 Zrotation Yrotation Xrotation
		JOINT LeftHip
		{
			OFFSET 1.58895 -1.83665 0.71753
			CHANNELS 3 Zrotation Yrotation Xrotation
			JOINT LeftKnee
			{
				OFFSET 2.50528 -6.88321 0.00000
				CHANNELS 3 Zrotation Yrotation Xrotation
				JOINT LeftAnkle
				{
					OFFSET 2.63244 -7.23257 0.00000
					CHANNELS 3 Zrotation Yrotation Xrotation
					JOINT LeftToe
					{
						OFFSET 0.23691 -0.65090 1.72750
						CHANNELS 3 Zrotation Yrotation Xrotation
						End Site
						{
							OFFSET 0.00000 -0.00000 0.92561
						}
					}
				}
			}
		}
	}
	JOINT RHipJoint
	{
		OFFSET 0 0 0
		CHANNELS 3 Zrotation Yrotation Xrotation
		JOINT RightHip
		{
			OFFSET -1.51435 -1.83665 0.71753
			CHANNELS 3 Zrotation Yrotation Xrotation
			JOINT RightKnee
			{
				OFFSET -2.54551 -6.99375 0.00000
				CHANNELS 3 Zrotation Yrotation Xrotation
				JOINT RightAnkle
				{
					OFFSET -2.66027 -7.30903 0.00000
					CHANNELS 3 Zrotation Yrotation Xrotation
					JOINT RightToe
					{
						OFFSET -0.22981 -0.63138 2.03959
						CHANNELS 3 Zrotation Yrotation Xrotation
						End Site
						{
							OFFSET -0.00000 -0.00000 1.07060
						}
					}
				}
			}
		}
	}
	JOINT lowerback
	{
		OFFSET 0 0 0
		CHANNELS 3 Zrotation Yrotation Xrotation
		JOINT Chest
		{
			OFFSET -0.02651 1.86275 -0.11152
			CHANNELS 3 Zrotation Yrotation Xrotation
			JOINT Chest2
			{
				OFFSET 0.01019 1.86224 0.04087
				CHANNELS 3 Zrotation Yrotation Xrotation
				JOINT lowerneck
				{
					OFFSET 0 0 0
					CHANNELS 3 Zrotation Yrotation Xrotation
					JOINT Neck
					{
						OFFSET -0.01926 1.80512 0.08867
						CHANNELS 3 Zrotation Yrotation Xrotation
						JOINT Head
						{
							OFFSET 0.05516 1.76451 -0.38475
							CHANNELS 3 Zrotation Yrotation Xrotation
							End Site
							{
								OFFSET 0.01592 1.82587 -0.14001
							}
						}
					}
				}
				JOINT LeftCollar
				{
					OFFSET 0 0 0
					CHANNELS 3 Zrotation Yrotation Xrotation
					JOINT LeftShoulder
					{
						OFFSET 3.47116 1.51376 0.14491
CHANNELS 3 Zrotation Xrotation Yrotation
						JOINT LeftElbow
						{
OFFSET 0 -4.780950 0.000000
CHANNELS 3 Zrotation Xrotation Yrotation
							JOINT LeftWrist
							{
OFFSET 0 -3.586150 -0.000000
CHANNELS 3 Zrotation Xrotation Yrotation
								JOINT lhand
								{
									OFFSET 0 0 0
CHANNELS 3 Zrotation Xrotation Yrotation
									JOINT LFingers
									{
OFFSET 0 -0.659810 0.000000
CHANNELS 3 Zrotation Xrotation Yrotation
										End Site
										{
OFFSET 0 -0.531960 0.000000
										}
									}
								}
								JOINT LThumb
								{
OFFSET 0 0.000000 0.000000
CHANNELS 3 Zrotation Xrotation Yrotation
									End Site
									{
OFFSET 0 -0.540080 0.540080
									}
								}
							}
						}
					}
				}
				JOINT RightCollar
				{
					OFFSET 0 0 0
					CHANNELS 3 Zrotation Yrotation Xrotation
					JOINT RightShoulder
					{
						OFFSET -3.31725 1.61216 0.35156
CHANNELS 3 Zrotation Xrotation Yrotation
						JOINT RightElbow
						{
OFFSET 0 -4.489130 0.000000
CHANNELS 3 Zrotation Xrotation Yrotation
							JOINT RightWrist
							{
OFFSET 0 -3.705100 0.000000
CHANNELS 3 Zrotation Xrotation Yrotation
								JOINT rhand
								{
									OFFSET 0 0 0
CHANNELS 3 Zrotation Xrotation Yrotation
									JOINT RFingers
									{
OFFSET 0 -0.449140 0.000000
CHANNELS 3 Zrotation Xrotation Yrotation
										End Site
										{
OFFSET 0 -0.362110 0.000000
										}
									}
								}
								JOINT RThumb
								{
OFFSET 0 0.000000 0.000000
CHANNELS 3 Zrotation Xrotation Yrotation
									End Site
									{
OFFSET 0 -0.367630 0.367630
									}
								}
							}
						}
					}
				}
			}
		}
	}
}
MOTION
Frames: 4
Frame Time: 0.008333333333333333
-0.669009 18.878791 6.308960 1.110159 -8.871110 9.677773 0.000000 0.000000 0.000000 -15.436975 0.234693 -11.627244 1.121300 6.726392 18.907284 0.996150 2.285950 -19.808394 8.388186 -16.397439 -53.949203 0.000000 0.000000 0.000000 11.263819 8.012333 0.998181 0.000000 0.000000 0.000000 -0.817609 -6.358742 -20.540088 -0.061444 1.597352 -4.394059 7.738153 -3.257696 23.966378 2.663312 -1.617148 -2.175104 -0.702393 -1.232378 -16.299269 3.587566 3.750989 -20.567624 -7.629196 4.916318 5.561813 -2.493717 1.913850 5.255746 0.000000 0.000000 0.000000 65.989088 8.037208 42.316653 32.342100 -42.794446 12.981071 -29.577317 7.491590 4.074172 0.000000 0.000000 0.000000 -7.125000 0.000000 0.000000 -38.101140 23.345098 -26.176788 0.000000 0.000000 0.000000 -74.356950 25.063623 -22.704168 -34.342127 -44.319254 -14.357525 19.872975 -14.306463 39.811052 0.000000 0.000000 0.000000 7.125000 0.000000 0.000000 62.080023 59.057148 -27.625539
-0.695206 18.880872 6.304932 1.106899 -8.582938 9.626412 0.000000 0.000000 0.000000 -15.286073 0.074566 -11.631297 1.132975 6.760188 19.006705 0.974331 2.285648 -19.602680 8.433595 -16.429030 -54.109808 0.000000 0.000000 0.000000 11.393382 7.714743 1.037967 0.000000 0.000000 0.000000 -0.828537 -6.187449 -20.522531 -0.059120 1.567651 -4.312248 7.420248 -3.120099 24.283194 2.320413 -1.553625 -2.108952 -0.940567 -1.198619 -16.395254 3.412007 3.621637 -20.238566 -7.009453 4.707797 5.266288 -2.294042 1.866768 5.075110 0.000000 0.000000 0.000000 64.217161 12.821276 38.937834 37.843033 -46.698932 16.863708 -30.854348 -1.007460 2.088318 0.000000 0.000000 0.000000 -7.125000 0.000000 0.000000 -39.348359 24.850700 -25.689945 0.000000 0.000000 0.000000 -71.685134 27.697117 -24.465911 -38.360961 -47.056655 -17.233045 14.261238 -12.388319 38.163905 0.000000 0.000000 0.000000 7.125000 0.000000 0.000000 55.279889 59.425610 -23.798303
-0.727665 18.883878 6.296586 1.130248 -8.238663 9.641420 0.000000 0.000000 0.000000 -15.123704 -0.070492 -11.734920 1.145561 6.796390 19.113468 0.955219 2.129913 -19.347114 8.452163 -16.441947 -54.175481 0.000000 0.000000 0.000000 11.505361 7.373432 0.995302 0.000000 0.000000 0.000000 -0.851087 -5.905145 -20.539852 -0.041430 1.310978 -3.605011 6.885375 -2.922567 24.685770 2.042268 -1.455286 -2.243574 -1.004271 -1.132184 -16.367308 2.895346 3.349434 -19.688735 -6.076872 4.355169 4.733961 -1.959056 1.769068 4.765995 0.000000 0.000000 0.000000 61.301093 18.490268 34.967218 45.352193 -50.888308 22.526638 -28.198437 -10.061075 0.683490 0.000000 0.000000 0.000000 -7.125000 0.000000 0.000000 -38.603819 26.638173 -22.535246 0.000000 0.000000 0.000000 -66.903145 30.079939 -27.332198 -42.787790 -49.610977 -20.546801 6.336097 -6.445566 35.343640 0.000000 0.000000 0.000000 7.125000 0.000000 0.000000 44.837574 59.379939 -17.970833
-0.761250 18.885755 6.281632 1.126013 -7.882513 9.853110 0.000000 0.000000 0.000000 -14.934578 -0.201833 -12.129006 1.159731 6.836961 19.233151 0.934172 1.948745 -19.060110 8.488996 -16.467424 -54.305682 0.000000 0.000000 0.000000 11.616131 7.078936 0.718265 0.000000 0.000000 0.000000 -0.868382 -5.632795 -20.518551 -0.023990 0.997907 -2.743170 6.318721 -2.652774 24.986991 1.780025 -1.281558 -2.400401 -1.054109 -1.027433 -16.356273 2.094900 2.901014 -18.794518 -4.899205 3.807048 3.882240 -1.525700 1.591114 4.292190 0.000000 0.000000 0.000000 56.838492 22.140442 34.170006 52.891237 -54.086587 28.502678 -24.371722 -15.938019 0.235035 0.000000 0.000000 0.000000 -7.125000 0.000000 0.000000 -36.771506 27.652857 -19.588400 0.000000 0.000000 0.000000 -59.952017 31.840205 -30.642051 -47.784551 -52.056749 -24.417172 -8.549465 3.284573 34.176976 0.000000 0.000000 0.000000 7.125000 0.000000 0.000000 29.106380 62.079862 -12.649643
